<svg width="96" height="15" viewBox="0 0 96 15" fill="none" xmlns="http://www.w3.org/2000/svg">
<path d="M6.016 4.096C6.05867 3.88267 6.08 3.664 6.08 3.44C6.08 2.40533 5.57333 1.888 4.56 1.888C4.10133 1.888 3.712 1.984 3.392 2.176C3.09333 2.528 2.944 2.94933 2.944 3.44C2.944 3.76 3.08267 4.03733 3.36 4.272C3.63733 4.496 3.97867 4.672 4.384 4.8C4.8 4.928 5.248 5.088 5.728 5.28C6.208 5.472 6.65067 5.68 7.056 5.904C7.472 6.11733 7.81867 6.44267 8.096 6.88C8.37333 7.30667 8.512 7.81333 8.512 8.4C8.512 9.52 8.08 10.432 7.216 11.136C6.36267 11.84 5.33333 12.192 4.128 12.192C3.15733 12.192 2.33067 11.952 1.648 11.472C0.976 10.9813 0.64 10.2987 0.64 9.424C0.64 8.976 0.773333 8.60267 1.04 8.304C1.31733 7.99467 1.64267 7.84 2.016 7.84C2.4 7.84 2.68267 7.888 2.864 7.984C2.77867 8.304 2.736 8.592 2.736 8.848C2.736 9.424 2.896 9.88267 3.216 10.224C3.54667 10.5547 4 10.72 4.576 10.72C5.152 10.72 5.616 10.5707 5.968 10.272C6.32 9.97333 6.496 9.57867 6.496 9.088C6.496 8.58667 6.29867 8.176 5.904 7.856C5.52 7.536 5.05067 7.28 4.496 7.088C3.94133 6.896 3.38667 6.69333 2.832 6.48C2.27733 6.26667 1.80267 5.952 1.408 5.536C1.024 5.10933 0.832 4.576 0.832 3.936C0.832 2.93333 1.264 2.10133 2.128 1.44C3.00267 0.778666 3.98933 0.447999 5.088 0.447999C5.89867 0.447999 6.59733 0.613332 7.184 0.943999C7.78133 1.264 8.08 1.75467 8.08 2.416C8.08 2.896 7.92533 3.30667 7.616 3.648C7.30667 3.97867 6.91733 4.144 6.448 4.144C6.32 4.144 6.176 4.128 6.016 4.096ZM12.7284 12.192C11.555 12.192 10.691 11.8507 10.1364 11.168C9.58171 10.4747 9.30438 9.51467 9.30438 8.288C9.30438 7.05067 9.67238 5.97867 10.4084 5.072C11.1444 4.16533 12.0884 3.712 13.2404 3.712C15.6084 3.712 16.7924 5.04533 16.7924 7.712C16.7924 8.96 16.4084 10.0213 15.6404 10.896C14.8724 11.76 13.9017 12.192 12.7284 12.192ZM11.5764 5.472C11.3844 6.09067 11.2884 6.70933 11.2884 7.328C11.2884 7.94667 11.3097 8.42667 11.3524 8.768C11.395 9.10933 11.475 9.45067 11.5924 9.792C11.8377 10.4853 12.3177 10.832 13.0324 10.832C13.7577 10.832 14.2324 10.64 14.4564 10.256C14.691 9.872 14.8084 9.28 14.8084 8.48C14.8084 6.208 14.2697 5.072 13.1924 5.072C12.5737 5.072 12.035 5.20533 11.5764 5.472ZM18.2268 10.368L18.3868 7.04C18.3868 6.00533 18.2374 5.024 17.9388 4.096C18.2374 3.968 18.6054 3.904 19.0428 3.904C19.8961 3.904 20.3228 4.37867 20.3228 5.328C20.3228 5.86133 20.2641 6.61333 20.1468 7.584C20.0294 8.544 19.9708 9.24267 19.9708 9.68C19.9708 10.2133 20.2108 10.48 20.6908 10.48C20.9788 10.48 21.3148 10.24 21.6988 9.76C22.0934 9.26933 22.4294 8.72533 22.7068 8.128C22.9948 7.52 23.1654 7.024 23.2188 6.64C23.1548 5.46667 23.0641 4.61867 22.9468 4.096C23.2881 3.968 23.6348 3.904 23.9868 3.904C24.3494 3.904 24.6481 4.016 24.8828 4.24C25.1281 4.464 25.2508 4.74133 25.2508 5.072C25.2508 5.40267 25.2028 5.952 25.1068 6.72C25.0108 7.488 24.9628 8.29333 24.9628 9.136C24.9628 9.968 25.0588 10.8587 25.2508 11.808C24.8348 11.936 24.4614 12 24.1308 12C23.4694 12 23.1388 11.5627 23.1388 10.688C23.1388 10.304 23.1814 9.77067 23.2668 9.088C22.8401 9.99467 22.3174 10.7253 21.6988 11.28C21.0908 11.824 20.4721 12.096 19.8428 12.096C18.7654 12.096 18.2268 11.52 18.2268 10.368ZM27.0549 0.191999C27.3962 0.0639992 27.7482 -9.53674e-07 28.1109 -9.53674e-07C28.4735 -9.53674e-07 28.7722 0.122666 29.0069 0.367999C29.2522 0.602666 29.3749 0.927999 29.3749 1.344C29.3749 1.74933 29.3162 2.57067 29.1989 3.808C29.0922 5.03467 29.0389 6 29.0389 6.704C29.0389 8.44267 29.1615 10.144 29.4069 11.808C29.0655 11.936 28.7029 12 28.3189 12C27.4975 12 27.0869 11.6 27.0869 10.8C27.0869 10.416 27.1455 9.664 27.2629 8.544C27.3802 7.41333 27.4389 6.50667 27.4389 5.824C27.4389 3.552 27.3109 1.67467 27.0549 0.191999ZM32.0078 9.392C32.0078 9.2 31.9598 7.952 31.8638 5.648C31.3411 5.68 30.9251 5.77067 30.6158 5.92C30.4878 5.68533 30.4238 5.44 30.4238 5.184C30.4238 4.928 30.5144 4.72 30.6958 4.56C30.8771 4.38933 31.0904 4.304 31.3358 4.304C31.5811 4.304 31.7571 4.30933 31.8638 4.32C31.9171 3.11467 32.3278 2.096 33.0958 1.264C33.8638 0.421333 34.8291 -9.53674e-07 35.9918 -9.53674e-07C36.6424 -9.53674e-07 37.1918 0.138666 37.6398 0.415999C38.0878 0.693333 38.3118 1.104 38.3118 1.648C38.3118 2.032 38.1678 2.35733 37.8798 2.624C37.5918 2.89067 37.2504 3.024 36.8558 3.024C36.7704 3.024 36.6638 3.01333 36.5358 2.992C36.5678 2.85333 36.5838 2.73067 36.5838 2.624C36.5838 2.25067 36.5038 1.952 36.3438 1.728C36.1838 1.49333 35.9011 1.376 35.4958 1.376C35.0904 1.376 34.7171 1.49333 34.3758 1.728C34.1624 2.016 33.9918 2.416 33.8638 2.928C33.7358 3.44 33.6718 3.94133 33.6718 4.432H34.0398C34.7438 4.432 35.5811 4.32 36.5518 4.096C36.6798 4.30933 36.7438 4.56533 36.7438 4.864C36.7438 5.152 36.6211 5.392 36.3758 5.584C36.1304 5.776 35.8211 5.872 35.4478 5.872C35.4371 5.872 34.8344 5.79733 33.6398 5.648L33.7998 13.968C33.7998 14.6613 33.3891 15.008 32.5678 15.008C32.2904 15.008 31.9278 14.944 31.4798 14.816C31.8318 13.4187 32.0078 11.6107 32.0078 9.392ZM37.5549 10.368L37.7149 7.04C37.7149 6.00533 37.5655 5.024 37.2669 4.096C37.5655 3.968 37.9335 3.904 38.3709 3.904C39.2242 3.904 39.6509 4.37867 39.6509 5.328C39.6509 5.86133 39.5922 6.61333 39.4749 7.584C39.3575 8.544 39.2989 9.24267 39.2989 9.68C39.2989 10.2133 39.5389 10.48 40.0189 10.48C40.3069 10.48 40.6429 10.24 41.0269 9.76C41.4215 9.26933 41.7575 8.72533 42.0349 8.128C42.3229 7.52 42.4935 7.024 42.5469 6.64C42.4829 5.46667 42.3922 4.61867 42.2749 4.096C42.6162 3.968 42.9629 3.904 43.3149 3.904C43.6775 3.904 43.9762 4.016 44.2109 4.24C44.4562 4.464 44.5789 4.74133 44.5789 5.072C44.5789 5.40267 44.5309 5.952 44.4349 6.72C44.3389 7.488 44.2909 8.29333 44.2909 9.136C44.2909 9.968 44.3869 10.8587 44.5789 11.808C44.1629 11.936 43.7895 12 43.4589 12C42.7975 12 42.4669 11.5627 42.4669 10.688C42.4669 10.304 42.5095 9.77067 42.5949 9.088C42.1682 9.99467 41.6455 10.7253 41.0269 11.28C40.4189 11.824 39.8002 12.096 39.1709 12.096C38.0935 12.096 37.5549 11.52 37.5549 10.368ZM46.383 0.191999C46.7243 0.0639992 47.0763 -9.53674e-07 47.439 -9.53674e-07C47.8017 -9.53674e-07 48.1003 0.122666 48.335 0.367999C48.5803 0.602666 48.703 0.927999 48.703 1.344C48.703 1.74933 48.6443 2.57067 48.527 3.808C48.4203 5.03467 48.367 6 48.367 6.704C48.367 8.44267 48.4897 10.144 48.735 11.808C48.3937 11.936 48.031 12 47.647 12C46.8257 12 46.415 11.6 46.415 10.8C46.415 10.416 46.4737 9.664 46.591 8.544C46.7083 7.41333 46.767 6.50667 46.767 5.824C46.767 3.552 46.639 1.67467 46.383 0.191999ZM66.6515 1.536L66.5715 4.176C66.5715 5.62667 66.6142 6.928 66.6995 8.08C66.7848 9.22133 66.9768 10.464 67.2755 11.808C67.0408 12 66.6675 12.096 66.1555 12.096C65.1635 12.096 64.6675 11.664 64.6675 10.8C64.6675 10.0853 64.6995 8.992 64.7635 7.52C64.8382 6.048 64.8755 4.896 64.8755 4.064C64.2995 4.896 63.6915 5.92533 63.0515 7.152C62.4222 8.368 62.1075 9.11467 62.1075 9.392C62.1075 9.66933 62.1342 9.88267 62.1875 10.032C61.9528 10.1813 61.6382 10.256 61.2435 10.256C60.8595 10.256 60.5342 10.1493 60.2675 9.936C60.0115 9.72267 59.7928 9.42933 59.6115 9.056C59.4408 8.68267 59.1315 7.952 58.6835 6.864C58.2462 5.76533 57.8462 4.82133 57.4835 4.032C57.2062 5.74933 57.0675 7.26933 57.0675 8.592C57.0675 9.91467 57.1102 10.9867 57.1955 11.808C56.8542 11.936 56.5128 12 56.1715 12C55.4888 12 55.1475 11.6587 55.1475 10.976C55.1475 10.4533 55.2648 9.41333 55.4995 7.856C55.7448 6.288 55.8675 4.96533 55.8675 3.888C55.8675 2.81067 55.8088 1.80267 55.6915 0.863999C56.2675 0.714666 56.7155 0.639999 57.0355 0.639999C57.6222 0.639999 58.0168 0.848 58.2195 1.264C58.5395 1.936 59.0088 3.008 59.6275 4.48C60.2568 5.94133 60.7688 7.06667 61.1635 7.856C61.2702 7.632 61.5155 7.152 61.8995 6.416C62.2942 5.66933 62.6195 5.03467 62.8755 4.512C63.1422 3.97867 63.4088 3.34933 63.6755 2.624C63.9528 1.888 64.1288 1.248 64.2035 0.704C64.5875 0.597333 64.9608 0.544 65.3235 0.544C65.6968 0.544 66.0115 0.624 66.2675 0.783999C66.5235 0.943999 66.6515 1.19467 66.6515 1.536ZM68.9924 10.368L69.1524 7.04C69.1524 6.00533 69.003 5.024 68.7044 4.096C69.003 3.968 69.371 3.904 69.8084 3.904C70.6617 3.904 71.0884 4.37867 71.0884 5.328C71.0884 5.86133 71.0297 6.61333 70.9124 7.584C70.795 8.544 70.7364 9.24267 70.7364 9.68C70.7364 10.2133 70.9764 10.48 71.4564 10.48C71.7444 10.48 72.0804 10.24 72.4644 9.76C72.859 9.26933 73.195 8.72533 73.4724 8.128C73.7604 7.52 73.931 7.024 73.9844 6.64C73.9204 5.46667 73.8297 4.61867 73.7124 4.096C74.0537 3.968 74.4004 3.904 74.7524 3.904C75.115 3.904 75.4137 4.016 75.6484 4.24C75.8937 4.464 76.0164 4.74133 76.0164 5.072C76.0164 5.40267 75.9684 5.952 75.8724 6.72C75.7764 7.488 75.7284 8.29333 75.7284 9.136C75.7284 9.968 75.8244 10.8587 76.0164 11.808C75.6004 11.936 75.227 12 74.8964 12C74.235 12 73.9044 11.5627 73.9044 10.688C73.9044 10.304 73.947 9.77067 74.0324 9.088C73.6057 9.99467 73.083 10.7253 72.4644 11.28C71.8564 11.824 71.2377 12.096 70.6084 12.096C69.531 12.096 68.9924 11.52 68.9924 10.368ZM79.0685 9.088C79.0365 9.23733 79.0205 9.36 79.0205 9.456C79.0205 9.89333 79.1485 10.2293 79.4045 10.464C79.6712 10.6987 80.0232 10.816 80.4605 10.816C80.9085 10.816 81.2765 10.736 81.5645 10.576C81.8632 10.4053 82.0125 10.1547 82.0125 9.824C82.0125 9.49333 81.8525 9.232 81.5325 9.04C81.2232 8.83733 80.8445 8.67733 80.3965 8.56C79.9592 8.44267 79.5165 8.31467 79.0685 8.176C78.6205 8.02667 78.2365 7.79733 77.9165 7.488C77.6072 7.17867 77.4525 6.78933 77.4525 6.32C77.4525 5.584 77.8418 4.96533 78.6205 4.464C79.3992 3.96267 80.2152 3.712 81.0685 3.712C82.0072 3.712 82.7218 3.904 83.2125 4.288C83.5005 4.512 83.6445 4.81067 83.6445 5.184C83.6445 5.54667 83.5005 5.84533 83.2125 6.08C82.9352 6.304 82.5938 6.416 82.1885 6.416C82.1032 6.416 81.9965 6.40533 81.8685 6.384C81.9005 6.24533 81.9165 6.12267 81.9165 6.016C81.9165 5.70667 81.7992 5.472 81.5645 5.312C81.3298 5.152 81.0098 5.072 80.6045 5.072C80.2098 5.072 79.8472 5.152 79.5165 5.312C79.3885 5.48267 79.3245 5.70133 79.3245 5.968C79.3245 6.23467 79.4792 6.45333 79.7885 6.624C80.0978 6.784 80.4712 6.928 80.9085 7.056C81.3565 7.17333 81.8045 7.312 82.2525 7.472C82.7005 7.62133 83.0792 7.86133 83.3885 8.192C83.6978 8.512 83.8525 8.91733 83.8525 9.408C83.8525 10.208 83.4525 10.8747 82.6525 11.408C81.8632 11.9307 81.0472 12.192 80.2045 12.192C79.3618 12.192 78.6632 12.0427 78.1085 11.744C77.5645 11.4347 77.2925 10.9707 77.2925 10.352C77.2925 9.968 77.4312 9.65867 77.7085 9.424C77.9965 9.17867 78.3432 9.056 78.7485 9.056C78.8338 9.056 78.9405 9.06667 79.0685 9.088ZM84.9898 4.048C85.3311 3.952 85.6724 3.904 86.0138 3.904C86.3658 3.904 86.6644 4.01067 86.9098 4.224C87.1551 4.43733 87.2778 4.71467 87.2778 5.056C87.2778 5.38667 87.2191 5.968 87.1018 6.8C86.9951 7.62133 86.9418 8.26133 86.9418 8.72C86.9418 9.91467 87.0538 10.944 87.2778 11.808C86.9471 11.936 86.5898 12 86.2057 12C85.8218 12 85.5178 11.9147 85.2938 11.744C85.0698 11.5627 84.9578 11.3067 84.9578 10.976C84.9578 10.6347 85.0218 10.08 85.1497 9.312C85.2778 8.544 85.3418 7.90933 85.3418 7.408C85.3418 6.07467 85.2244 4.95467 84.9898 4.048ZM85.1978 0.431999C85.5711 0.261333 85.9391 0.176 86.3018 0.176C86.6644 0.176 86.9311 0.272 87.1018 0.464C87.2831 0.645333 87.3738 0.917333 87.3738 1.28C87.3738 1.64267 87.2511 1.96267 87.0058 2.24C86.7711 2.51733 86.4618 2.656 86.0778 2.656C85.2884 2.656 84.8938 2.24533 84.8938 1.424C84.8938 1.06133 84.9951 0.730666 85.1978 0.431999ZM92.1879 12.192C91.0465 12.192 90.1719 11.888 89.5639 11.28C88.9559 10.672 88.6519 9.79733 88.6519 8.656C88.6519 7.26933 89.0412 6.10133 89.8199 5.152C90.5985 4.192 91.6332 3.712 92.9239 3.712C93.6599 3.712 94.2572 3.86133 94.7159 4.16C95.1745 4.448 95.4039 4.88 95.4039 5.456C95.4039 5.82933 95.2545 6.16533 94.9559 6.464C94.6572 6.752 94.3212 6.896 93.9479 6.896C93.8625 6.896 93.7559 6.88533 93.6279 6.864C93.6599 6.72533 93.6759 6.60267 93.6759 6.496C93.6759 6.112 93.5745 5.78667 93.3719 5.52C93.1692 5.25333 92.8332 5.12 92.3639 5.12C91.8945 5.12 91.4572 5.312 91.0519 5.696C90.7639 6.44267 90.6199 7.376 90.6199 8.496C90.6199 10.0213 91.1959 10.784 92.3479 10.784C92.9665 10.784 93.4252 10.5867 93.7239 10.192C94.0332 9.78667 94.1879 9.33333 94.1879 8.832C94.5505 8.832 94.8652 8.92267 95.1319 9.104C95.3985 9.28533 95.5319 9.536 95.5319 9.856C95.5319 10.5493 95.1745 11.1147 94.4599 11.552C93.7559 11.9787 92.9985 12.192 92.1879 12.192Z" fill="black"/>
</svg>
